<?xml version="1.0" standalone="no"?>
<!DOCTYPE svg PUBLIC "-//W3C//DTD SVG 20010904//EN"
 "http://www.w3.org/TR/2001/REC-SVG-20010904/DTD/svg10.dtd">
<svg version="1.0" xmlns="http://www.w3.org/2000/svg"
 width="300.000000pt" height="401.000000pt" viewBox="0 0 300.000000 401.000000"
 preserveAspectRatio="xMidYMid meet">
<metadata>
Created by potrace 1.10, written by Peter Selinger 2001-2011
</metadata>
<g transform="translate(0.000000,401.000000) scale(0.100000,-0.100000)"
fill="#ff9500" stroke="none">
<path d="M1503 3833 c-7 -2 -13 -20 -13 -38 0 -19 -5 -37 -11 -41 -6 -3 -8
-17 -5 -29 5 -18 -1 -28 -24 -45 -32 -23 -120 -140 -120 -160 0 -8 -7 -10 -20
-6 -11 3 -29 9 -40 12 -17 5 -20 2 -20 -22 0 -56 -10 -72 -52 -82 -35 -9 -44
-7 -75 14 -20 13 -40 24 -44 24 -16 0 -30 -41 -25 -68 5 -24 1 -30 -34 -50
-31 -17 -44 -20 -59 -12 -11 5 -35 10 -54 10 l-34 0 5 -49 c3 -38 0 -55 -14
-74 -18 -24 -23 -25 -75 -20 -66 7 -80 -5 -50 -43 27 -34 19 -70 -23 -106 -36
-30 -28 -47 14 -31 28 11 42 2 20 -12 -23 -14 0 -105 27 -105 7 0 21 16 30 36
16 33 16 38 1 64 -15 27 -15 28 5 34 12 3 32 -4 50 -16 17 -12 74 -34 126 -49
65 -19 86 -28 64 -28 -19 -1 -44 -12 -63 -27 -102 -87 -97 -269 10 -340 34
-22 48 -26 90 -22 29 3 59 13 70 23 24 21 22 23 44 -37 9 -25 35 -67 57 -91
21 -25 39 -50 39 -56 0 -7 -16 -25 -35 -42 -19 -17 -35 -37 -35 -44 0 -17 -52
-33 -109 -34 -24 -1 -49 -7 -55 -15 -6 -8 -29 -17 -50 -21 -107 -18 -194 -97
-259 -233 -23 -48 -47 -91 -54 -95 -7 -4 -13 -16 -13 -26 0 -11 -19 -50 -42
-87 -23 -38 -50 -89 -61 -114 -11 -25 -29 -55 -40 -67 -23 -26 -41 -117 -41
-206 0 -93 47 -136 170 -157 32 -6 80 -15 107 -21 36 -8 51 -8 62 1 10 8 31
10 65 5 31 -4 50 -3 50 3 0 5 16 13 36 16 19 4 42 10 50 13 11 4 14 -6 14 -45
0 -28 -5 -54 -10 -57 -6 -4 -10 -30 -9 -58 1 -47 -6 -100 -17 -135 -2 -8 -23
3 -59 33 -63 51 -144 95 -175 95 -15 0 -26 -12 -40 -44 -10 -24 -23 -47 -29
-50 -6 -4 -11 -20 -11 -35 0 -15 -5 -32 -12 -39 -22 -22 -48 -255 -28 -267 4
-3 3 -18 -3 -34 -21 -57 40 -106 165 -133 32 -7 58 -14 58 -18 0 -3 -18 -74
-39 -158 -26 -102 -35 -152 -27 -152 7 0 20 35 30 77 10 43 31 130 48 195 28
105 33 117 55 121 21 4 24 1 20 -17 -2 -11 -19 -81 -36 -155 -17 -74 -29 -136
-27 -138 5 -5 24 59 61 213 19 76 34 115 46 122 17 11 18 9 14 -16 -3 -15 -14
-97 -25 -182 -12 -85 -23 -170 -26 -187 l-6 -33 79 0 79 0 13 178 c8 97 18
187 22 200 9 23 35 39 46 29 3 -3 -6 -70 -21 -149 -28 -154 -42 -266 -33 -258
4 4 67 344 67 364 0 3 7 6 16 6 14 0 16 -18 11 -167 -3 -93 -8 -176 -12 -185
-4 -10 -3 -18 3 -18 6 0 14 20 17 44 l7 43 61 -19 c34 -11 68 -22 75 -24 8 -2
11 -11 7 -24 -4 -11 -2 -20 4 -20 6 0 11 10 11 21 0 19 4 21 31 15 17 -3 38
-6 45 -6 8 0 14 -7 14 -15 0 -8 4 -15 10 -15 5 0 7 7 4 15 -5 11 1 15 19 15
14 0 32 3 41 6 12 4 16 0 16 -15 0 -12 5 -21 10 -21 6 0 10 9 10 19 0 15 41
41 66 41 2 0 4 -13 4 -30 0 -16 4 -30 9 -30 6 0 7 15 4 34 -4 26 -1 34 13 38
11 3 27 9 37 13 15 6 17 1 17 -39 0 -25 4 -46 8 -46 4 0 6 83 4 183 -4 154 -2
185 10 189 12 5 19 -26 38 -160 13 -92 27 -178 31 -192 l7 -25 1 26 c1 40 -37
312 -48 341 -5 13 -6 30 -1 37 12 21 49 -9 60 -49 20 -80 60 -282 60 -310 0
-16 5 -32 11 -36 9 -5 10 7 5 47 -7 58 -54 292 -62 314 -4 9 4 12 28 10 l33
-2 27 -104 c15 -57 35 -141 44 -186 9 -46 21 -83 26 -83 5 0 7 8 4 18 -3 9
-10 40 -15 67 -21 107 -62 269 -72 281 -8 10 -7 18 5 29 9 9 16 23 16 31 0 18
14 18 29 1 14 -17 43 -116 72 -242 13 -55 24 -93 26 -84 4 16 -47 247 -62 281
-6 14 -2 16 21 9 27 -7 30 -14 71 -172 23 -90 42 -174 42 -186 1 -21 17 -40
27 -30 4 4 -57 263 -72 301 -5 12 0 16 19 16 45 0 159 41 184 67 22 21 25 31
20 68 -4 25 -2 47 3 50 13 8 13 52 1 60 -6 3 -6 17 1 35 8 24 7 35 -5 54 -9
13 -15 38 -15 55 1 18 -4 37 -10 43 -7 7 -12 24 -12 39 0 14 -9 38 -20 52 -11
14 -20 32 -20 39 0 8 -10 24 -23 36 l-23 22 -53 -27 c-29 -15 -79 -48 -111
-74 -32 -26 -61 -45 -64 -42 -3 4 -6 19 -6 35 0 16 -7 42 -15 58 -9 18 -11 31
-5 35 13 8 13 62 0 70 -5 3 -10 28 -10 55 l0 48 43 -9 c23 -5 49 -13 57 -16
14 -7 63 -11 135 -13 52 -2 169 18 213 35 23 9 56 33 73 53 30 34 31 37 25
111 -9 127 -14 153 -41 191 -14 20 -25 40 -25 44 0 4 -26 51 -57 104 -32 54
-58 105 -59 116 -1 10 -6 21 -12 25 -6 3 -33 52 -61 107 -68 135 -141 200
-246 219 -22 4 -47 14 -56 21 -9 8 -43 16 -77 18 -61 3 -92 17 -92 41 0 7 -13
25 -30 38 -16 14 -30 31 -30 37 0 7 18 32 40 58 22 25 48 66 57 92 l17 47 30
-18 c107 -65 236 35 236 183 0 94 -67 187 -136 189 -29 1 -29 1 6 11 19 6 58
17 87 25 28 8 67 25 87 38 21 14 43 21 55 18 23 -6 27 -18 11 -28 -18 -11 -11
-71 11 -91 21 -19 21 -18 40 5 23 28 24 59 3 89 -9 13 -11 22 -4 22 6 0 8 5 5
10 -3 6 -2 10 4 10 15 0 24 -20 9 -20 -8 -1 -6 -6 6 -15 14 -11 23 -12 30 -4
8 7 3 17 -17 34 -38 34 -45 76 -18 111 20 25 20 29 5 37 -9 5 -36 7 -61 3 -39
-5 -47 -3 -68 22 -20 23 -23 34 -18 75 6 45 5 47 -19 47 -14 0 -39 -5 -56 -11
-26 -9 -36 -7 -66 13 -32 20 -36 28 -36 65 0 23 -4 44 -9 47 -5 3 -30 -5 -56
-18 -37 -19 -53 -22 -78 -15 -37 10 -47 24 -47 66 0 40 -12 48 -48 29 l-28
-14 -28 53 c-15 30 -51 76 -79 102 -40 38 -51 54 -48 74 1 15 -2 30 -7 33 -6
3 -8 15 -5 26 9 34 -20 57 -54 43z m35 -36 c2 -10 -3 -17 -12 -17 -18 0 -29
16 -21 31 9 14 29 6 33 -14z m12 -52 c17 -20 4 -35 -31 -35 -21 0 -29 5 -29
18 0 10 3 22 7 25 11 12 40 8 53 -8z m-40 -63 c0 -4 -4 -12 -9 -17 -12 -14
-41 -105 -41 -130 0 -27 -36 -75 -56 -75 -20 0 -10 38 31 125 19 38 32 71 30
73 -6 6 -50 -74 -70 -130 -19 -53 -23 -57 -39 -45 -18 13 -17 15 2 53 26 50
101 136 113 128 5 -3 12 2 15 10 6 17 24 22 24 8z m46 -6 c3 -8 12 -12 19 -10
15 6 85 -78 115 -137 l19 -37 -24 -16 c-24 -16 -25 -15 -25 3 0 45 -73 191
-88 177 -3 -3 2 -14 11 -23 19 -22 52 -96 62 -141 5 -23 3 -32 -7 -32 -20 0
-55 60 -61 105 -5 44 -34 121 -42 113 -3 -3 3 -29 15 -57 26 -68 25 -83 -5
-46 -24 29 -25 29 -39 10 -20 -27 -20 -41 0 -24 14 11 20 10 40 -14 13 -16 24
-33 24 -40 -1 -7 -12 2 -26 18 -14 17 -28 25 -30 19 -3 -6 -11 -19 -18 -29
-12 -16 -13 -13 -13 26 -1 84 54 185 73 135z m14 -233 c0 -18 -45 -44 -64 -37
-34 13 -37 40 -9 83 l26 41 23 -38 c13 -20 24 -43 24 -49z m-255 44 c31 -18
41 -29 43 -53 4 -37 -19 -64 -53 -64 -35 0 -55 34 -44 73 5 17 6 40 3 49 -7
23 3 22 51 -5z m459 -98 c-25 -27 -64 -21 -84 13 -19 35 -8 54 46 85 l39 22 8
-50 c7 -42 6 -54 -9 -70z m-294 93 c0 -4 -5 -13 -12 -20 -9 -9 -9 -17 1 -36
18 -32 56 -41 88 -20 22 14 24 21 19 52 l-5 36 20 -20 c17 -18 18 -24 8 -46
-25 -56 -106 -64 -142 -16 -17 23 -19 31 -9 53 11 23 32 35 32 17z m-357 -66
c31 -22 41 -23 73 -15 23 7 40 7 46 1 6 -6 -7 -13 -35 -20 -37 -10 -45 -16
-50 -41 -14 -69 -74 -36 -84 47 -7 60 -1 63 50 28z m307 9 c0 -9 -9 -15 -25
-15 -16 0 -25 6 -25 15 0 9 9 15 25 15 16 0 25 -6 25 -15z m240 0 c0 -10 -10
-15 -30 -15 -22 0 -28 4 -24 15 4 8 17 15 30 15 15 0 24 -6 24 -15z m300 -34
c0 -55 -19 -84 -54 -79 -14 2 -22 11 -24 29 -3 22 -11 29 -48 39 -24 7 -44 17
-44 21 0 12 17 11 58 0 28 -8 38 -6 69 15 20 13 37 24 39 24 2 0 4 -22 4 -49z
m-504 -9 c31 -26 33 -45 7 -65 -13 -10 -23 -29 -23 -43 0 -21 -4 -23 -24 -18
-17 4 -42 -7 -97 -45 -90 -60 -114 -67 -164 -47 -73 31 -95 20 -110 -54 -8
-38 -55 -120 -69 -120 -4 0 -6 9 -3 20 6 22 -18 53 -37 47 -6 -2 -16 -13 -22
-25 l-11 -22 -37 25 c-27 18 -44 23 -63 19 -23 -6 -24 -5 -14 14 6 11 21 22
33 24 13 2 25 12 28 24 3 12 16 37 30 57 20 29 29 35 48 30 27 -6 62 21 62 48
0 11 17 29 38 43 32 21 39 22 53 10 33 -29 79 -10 79 32 0 29 76 51 101 29 23
-22 57 -18 82 9 27 29 83 33 113 8z m224 -7 c26 -28 56 -32 86 -11 32 22 104
2 104 -29 0 -52 71 -58 95 -8 l11 21 32 -20 c18 -11 32 -24 32 -29 0 -13 -7
-11 -36 7 -13 9 -27 14 -31 11 -3 -4 8 -14 25 -24 19 -11 34 -29 38 -46 7 -32
36 -51 67 -44 17 4 28 -3 50 -34 15 -22 27 -46 27 -54 0 -9 8 -18 18 -22 9 -3
25 -13 36 -22 17 -15 18 -15 15 3 -2 10 2 21 9 23 7 3 12 -4 12 -15 0 -23 -30
-37 -60 -27 -13 4 -30 -1 -46 -14 -31 -24 -54 -27 -54 -7 0 20 -25 27 -46 12
-11 -8 -15 -21 -11 -35 3 -11 2 -21 -3 -21 -12 0 -58 73 -66 105 -4 17 -13 43
-21 59 -16 30 -24 31 -109 5 -39 -12 -44 -11 -105 24 -35 21 -77 47 -92 59
-23 19 -31 20 -47 10 -17 -10 -20 -10 -20 7 0 10 -10 31 -22 46 -25 31 -31 65
-13 65 7 0 18 7 25 15 20 24 73 19 100 -10z m-152 -23 c2 -7 -3 -12 -12 -12
-9 0 -16 7 -16 16 0 17 22 14 28 -4z m-474 -11 c7 -11 -62 -56 -72 -46 -4 3 0
10 8 15 8 5 24 16 35 24 24 19 23 18 29 7z m1071 -97 c-26 -40 -75 -26 -75 22
0 26 18 43 57 53 26 7 28 5 31 -21 2 -16 -4 -40 -13 -54z m-1165 56 c23 -23
26 -50 8 -68 -30 -30 -72 -1 -80 56 -4 30 -2 32 24 32 15 0 37 -9 48 -20z
m603 -12 c17 -23 19 -33 11 -55 -5 -16 -14 -26 -19 -23 -6 3 -8 10 -7 15 10
27 10 45 1 50 -5 4 -6 11 -3 17 5 7 2 8 -6 3 -7 -4 -16 -2 -21 6 -7 12 -9 12
-9 0 0 -8 -6 -11 -16 -7 -8 3 -12 2 -9 -4 3 -6 0 -13 -8 -16 -15 -5 -19 -34
-5 -34 4 0 8 -8 8 -19 0 -15 6 -18 30 -15 17 2 30 -1 30 -6 0 -21 -49 -14 -72
11 -22 23 -23 58 -2 87 22 32 70 26 97 -10z m-29 -23 c8 -21 -3 -45 -20 -45
-8 0 -17 7 -20 15 -8 21 2 45 20 45 7 0 16 -7 20 -15z m-81 -60 c23 -22 46
-35 63 -35 18 0 38 12 60 35 38 41 62 44 93 11 12 -13 51 -38 87 -57 l65 -33
50 22 c28 11 57 18 65 15 8 -3 21 -29 29 -57 9 -29 27 -68 40 -86 19 -25 22
-36 12 -42 -7 -4 -14 -2 -16 5 -2 7 -12 23 -21 37 -10 14 -23 44 -29 68 -7 24
-19 46 -26 49 -8 3 -36 -3 -62 -12 -48 -17 -48 -17 -113 13 -36 16 -71 37 -79
46 -32 38 -48 38 -88 1 -50 -47 -86 -47 -137 0 -21 19 -42 35 -47 35 -5 0 -23
-13 -42 -29 -18 -16 -59 -41 -92 -55 -57 -26 -59 -26 -107 -10 -27 9 -55 14
-62 11 -7 -3 -16 -24 -20 -48 -4 -23 -15 -54 -25 -68 -10 -14 -20 -31 -22 -38
-3 -8 -9 -9 -18 -3 -12 7 -10 15 12 44 15 19 32 57 39 85 14 62 29 68 92 41
l47 -21 52 24 c29 14 70 38 92 55 22 17 47 31 56 31 9 1 32 -15 52 -34z m-553
18 c-1 -5 -14 -24 -30 -43 -34 -39 -41 -23 -9 21 19 27 40 38 39 22z m1269
-24 c13 -17 20 -33 16 -37 -6 -6 -54 46 -55 61 0 16 18 5 39 -24z m-744 -8 c7
-13 -2 -18 -50 -26 l-40 -8 25 21 c27 23 55 28 65 13z m235 -12 c24 -20 24
-20 3 -15 -54 14 -63 18 -58 27 9 14 28 10 55 -12z m-860 -11 c0 -7 -4 -20
-10 -28 -7 -12 -12 -12 -29 4 -29 26 -26 36 9 36 17 0 30 -5 30 -12z m1474
-13 c-19 -29 -29 -31 -38 -9 -11 28 -7 34 24 34 30 0 30 0 14 -25z m-1444 -20
c0 -12 -7 -26 -16 -29 -24 -9 -36 3 -19 20 8 9 15 22 15 30 0 8 5 12 10 9 6
-3 10 -17 10 -30z m663 5 l32 -8 -35 -1 c-60 -2 -202 -41 -250 -68 -56 -32
-99 -71 -111 -100 -5 -13 -14 -23 -20 -23 -6 0 -8 7 -5 16 3 9 6 20 6 25 0 18
74 90 119 117 59 34 201 73 219 59 6 -5 27 -13 45 -17z m285 -35 c53 -28 75
-46 115 -93 27 -33 37 -82 16 -82 -5 0 -7 -5 -4 -11 4 -5 -1 -19 -11 -30 -30
-33 -32 -30 -49 76 l-6 40 30 -35 c32 -38 42 -30 14 10 -50 71 -131 114 -257
137 l-94 16 31 17 c30 16 36 16 100 -2 38 -10 90 -30 115 -43z m442 40 c0 -8
8 -18 18 -24 16 -9 16 -10 -1 -16 -25 -10 -45 11 -39 40 4 25 22 25 22 0z
m-1059 -35 l36 -12 -48 -45 c-26 -24 -50 -55 -53 -69 -5 -20 -11 -24 -29 -18
-31 9 -31 10 -9 42 11 15 24 41 27 58 13 57 17 65 28 60 7 -2 28 -10 48 -16z
m769 -2 c5 -13 11 -35 14 -50 3 -15 13 -33 21 -42 20 -19 19 -42 -1 -50 -19
-7 -34 1 -34 18 0 8 -22 36 -49 64 l-49 50 37 15 c49 20 50 20 61 -5z m-1153
-33 c-16 -17 -26 -10 -20 15 4 16 9 18 19 9 10 -8 11 -14 1 -24z m859 24 c32
-6 84 -22 114 -35 l55 -25 20 -97 c24 -125 25 -288 0 -361 -11 -33 -32 -68
-56 -92 -51 -51 -63 -50 -55 1 3 22 4 40 2 40 -3 0 -14 -19 -24 -42 -29 -64
-72 -100 -116 -98 -76 4 -92 3 -116 -4 -38 -11 -89 28 -123 94 l-29 55 7 -49
7 -49 -32 23 c-79 56 -116 169 -107 325 8 142 33 242 64 262 79 52 259 76 389
52z m-896 -59 c-24 -15 -36 -11 -14 4 10 8 21 12 24 10 2 -3 -2 -9 -10 -14z
m220 -14 c0 -8 -5 -18 -11 -22 -14 -8 -33 11 -25 25 10 16 36 13 36 -3z m1140
-6 c0 -23 -25 -27 -33 -6 -7 16 1 26 20 26 7 0 13 -9 13 -20z m-1315 -51 c0
-24 -5 -35 -17 -37 -14 -3 -18 4 -18 31 0 18 3 37 7 41 15 14 28 -2 28 -35z
m1490 21 c8 -26 -3 -62 -18 -57 -7 2 -13 14 -15 26 -7 45 20 71 33 31z m-1099
-49 c-9 -16 -13 -36 -10 -44 9 -25 -16 -30 -37 -8 -23 25 -23 23 -1 49 9 11
26 31 37 44 17 20 20 21 23 6 2 -9 -4 -30 -12 -47z m-86 -25 c0 -8 -7 -12 -17
-10 -31 8 -86 -31 -110 -76 -68 -127 35 -282 152 -228 14 6 28 8 32 4 18 -18
-69 -43 -112 -32 -13 3 -40 22 -59 42 -80 82 -61 244 34 294 42 23 80 25 80 6z
m914 0 c18 -8 46 -31 62 -52 24 -31 29 -48 32 -108 3 -61 1 -76 -20 -106 -38
-56 -85 -83 -136 -77 -43 5 -72 21 -60 33 4 3 22 0 41 -7 43 -15 82 -6 117 30
88 88 33 274 -81 274 -28 0 -36 7 -22 20 10 11 30 8 67 -7z m-932 -51 c-4 -23
-22 -36 -22 -16 0 5 -3 16 -6 25 -4 11 0 16 14 16 15 0 18 -5 14 -25z m45 14
c9 -9 6 -17 -13 -31 -13 -11 -24 -25 -24 -33 0 -10 -14 -18 -50 -25 -2 -1 -6
4 -9 11 -2 7 1 9 9 4 8 -5 11 -4 6 3 -3 6 3 12 16 14 15 2 25 13 32 36 10 35
16 38 33 21z m826 -16 c7 -36 2 -40 -23 -18 -15 14 -17 21 -9 32 17 20 26 16
32 -14z m60 16 c21 -9 57 -56 57 -73 0 -10 -38 -7 -45 3 -3 5 -1 12 5 16 5 3
10 12 10 18 -1 7 -5 6 -13 -4 -18 -23 -35 -13 -30 19 l3 27 -11 -25 c-11 -24
-11 -24 -19 -5 -16 39 -4 45 43 24z m-969 -50 c-7 -12 -34 8 -34 26 0 8 6 15
13 18 14 4 30 -30 21 -44z m116 -9 c0 -23 -4 -30 -20 -30 -11 0 -20 -4 -20
-10 0 -5 9 -10 19 -10 16 0 19 -6 15 -42 -3 -34 -2 -38 5 -18 l9 25 1 -26 c1
-15 4 -42 8 -60 l6 -34 -24 16 c-57 37 -78 143 -38 193 27 34 39 33 39 -4z
m775 -16 c22 -48 12 -106 -27 -150 -17 -19 -33 -34 -37 -34 -3 0 -4 21 -2 48
3 36 6 42 12 27 5 -14 8 -7 8 28 1 41 4 47 22 47 11 0 17 5 14 10 -3 6 -15 10
-27 10 -14 0 -18 5 -14 16 3 9 6 22 6 30 0 24 28 4 45 -32z m-915 4 c16 -36
15 -78 -2 -78 -6 0 -8 12 -5 29 5 24 2 31 -13 36 -20 6 -26 25 -13 38 12 13
19 7 33 -25z m992 -5 c30 -27 16 -125 -15 -107 -7 4 1 -7 18 -25 24 -26 27
-34 15 -41 -19 -12 -30 -3 -30 25 0 12 -7 25 -15 29 -8 3 -15 1 -15 -5 0 -6
-5 -7 -11 -3 -12 7 26 43 47 44 6 0 9 13 6 30 -3 21 -13 35 -33 46 -16 8 -29
17 -29 19 0 12 45 3 62 -12z m-1012 -33 c0 -11 -7 -20 -15 -20 -8 0 -15 9 -15
20 0 11 7 20 15 20 8 0 15 -9 15 -20z m75 -48 c-4 -4 -13 2 -21 12 -12 17 -12
22 4 39 17 19 17 19 20 -13 2 -17 0 -35 -3 -38z m923 24 c-2 -11 -10 -22 -19
-24 -12 -2 -14 5 -11 33 4 30 7 34 19 24 8 -7 13 -22 11 -33z m82 30 c0 -8 -5
-18 -11 -22 -14 -8 -33 11 -25 25 10 16 36 13 36 -3z m-1076 -51 c7 -20 -23
-32 -35 -14 -13 21 -11 29 10 29 10 0 22 -7 25 -15z m1076 -6 c0 -25 -33 -22
-38 4 -2 12 3 17 17 17 15 0 21 -6 21 -21z m-990 -32 c0 -5 9 -22 20 -37 14
-20 17 -31 9 -36 -13 -8 -29 13 -29 39 0 9 -5 17 -11 17 -5 0 -7 4 -4 10 3 5
0 7 -8 4 -16 -6 -50 23 -42 36 6 10 65 -20 65 -33z m-76 -18 c-18 -20 -34 -17
-34 6 0 14 28 25 43 17 5 -2 1 -12 -9 -23z m1056 12 c0 -3 -5 -13 -10 -21 -8
-13 -11 -12 -24 5 -8 11 -12 23 -10 26 5 8 44 -1 44 -10z m-1021 -23 c0 -7 -4
-21 -8 -31 -6 -17 -8 -17 -20 -3 -11 13 -11 19 -1 31 15 18 30 20 29 3z m33
-28 c4 -24 1 -30 -10 -28 -9 2 -15 6 -14 11 1 4 2 16 2 27 0 31 17 23 22 -10z
m872 8 c-9 -31 -12 -34 -26 -20 -8 8 -8 15 2 27 19 22 32 18 24 -7z m39 -4 c3
-16 0 -28 -10 -31 -20 -8 -25 1 -17 31 8 33 20 33 27 0z m-610 -239 c42 -36
100 -48 123 -25 7 7 21 6 45 -4 31 -13 38 -12 77 6 23 11 47 29 53 39 10 19
49 27 49 9 0 -10 -71 -60 -115 -79 -46 -21 -104 -25 -149 -10 -67 22 -146 71
-146 91 0 17 23 7 63 -27z m-11 -45 c90 -63 220 -63 308 1 48 35 63 31 33 -9
-73 -98 -393 -76 -393 27 0 16 5 14 52 -19z m-46 -29 c43 -51 168 -76 279 -56
47 9 120 48 134 73 15 27 26 5 11 -23 -7 -14 -39 -38 -69 -53 -50 -24 -67 -27
-161 -27 -95 0 -110 3 -157 27 -52 28 -87 64 -77 80 8 13 14 10 40 -21z m59
-90 c119 -45 289 -19 364 56 21 21 38 30 43 25 27 -27 -76 -103 -171 -128 -72
-18 -153 -14 -237 11 -63 19 -141 83 -131 109 6 15 12 12 41 -18 19 -19 60
-44 91 -55z m-164 8 c-40 -66 -17 -127 42 -115 17 4 39 14 49 23 17 15 18 15
12 -14 -7 -38 19 -93 45 -93 24 0 70 37 81 64 8 20 9 20 10 -4 1 -29 17 -52
46 -68 18 -10 27 -8 48 9 15 12 26 30 26 45 0 29 16 32 25 4 6 -19 52 -50 74
-50 17 0 44 49 43 79 -1 29 0 29 29 14 78 -39 134 53 68 113 -23 21 -24 16 -4
-22 19 -36 19 -58 1 -73 -28 -23 -109 21 -91 49 5 8 12 5 21 -8 18 -25 53 -35
61 -16 3 8 -2 25 -11 39 -13 20 -14 28 -4 45 7 11 15 19 18 17 3 -2 20 -9 38
-16 32 -13 33 -16 27 -50 -15 -81 -29 -111 -52 -111 -12 0 -35 -12 -52 -26
-26 -22 -31 -33 -31 -70 0 -35 6 -49 31 -75 26 -26 36 -30 67 -27 20 3 45 8
55 12 14 7 17 3 17 -18 0 -22 -4 -26 -31 -26 -41 0 -89 -47 -89 -89 0 -45 18
-77 56 -97 38 -21 46 -54 14 -54 -25 0 -70 -46 -70 -71 0 -26 -27 -24 -40 2
-9 15 -18 19 -34 15 -20 -5 -25 0 -39 42 -8 26 -18 54 -22 64 -4 11 0 18 14
23 30 9 54 60 46 95 -10 44 -42 79 -79 85 -18 4 -33 12 -34 18 -1 7 -7 35 -15
62 l-14 50 -47 1 c-47 2 -58 -5 -63 -41 -9 -57 -25 -84 -53 -90 -41 -9 -80
-58 -80 -102 0 -25 8 -43 30 -65 33 -32 33 -40 3 -110 -14 -32 -19 -37 -40
-32 -19 5 -25 2 -30 -15 -7 -29 -43 -28 -43 1 0 26 -37 68 -61 68 -9 0 -19 9
-22 20 -3 13 0 20 8 20 24 0 72 49 79 80 7 38 -15 94 -42 109 -12 6 -32 11
-46 11 -19 0 -26 5 -26 19 0 18 5 19 53 14 51 -5 54 -4 85 31 43 49 44 96 3
137 -27 27 -46 34 -78 30 -6 -1 -12 6 -12 16 0 10 -7 42 -15 72 -9 30 -15 55
-13 56 1 0 18 8 37 17 19 8 36 14 38 13 2 -2 -6 -18 -17 -36z m-107 -16 c3
-16 8 -38 12 -50 11 -38 -15 -27 -32 13 -15 36 -13 64 4 64 5 0 12 -12 16 -27z
m36 5 c0 -13 3 -33 6 -45 4 -13 2 -23 -4 -23 -5 0 -13 12 -16 28 -4 15 -9 35
-12 45 -4 11 0 17 10 17 10 0 16 -9 16 -22z m105 5 c-19 -44 -18 -63 3 -63 11
0 25 7 32 15 7 8 19 15 27 15 21 0 -16 -47 -44 -54 -49 -13 -67 22 -41 79 12
28 34 35 23 8z m660 -20 c-8 -46 -25 -68 -25 -32 0 36 11 69 22 69 6 0 8 -15
3 -37z m45 12 c0 -29 -20 -75 -32 -75 -9 0 -2 75 9 93 9 16 23 6 23 -18z
m-663 -11 c3 -10 -36 -38 -44 -31 -2 3 1 15 7 27 11 21 31 23 37 4z m491 -9
c9 -20 9 -25 -2 -25 -18 0 -39 27 -31 40 10 16 21 12 33 -15z m-721 -7 c1 -12
11 -34 23 -49 11 -16 20 -36 20 -45 0 -9 9 -18 20 -21 19 -5 20 -7 4 -24 -12
-14 -15 -29 -10 -66 12 -94 7 -131 -17 -139 -21 -7 -47 -54 -47 -87 0 -13 11
-41 25 -61 30 -45 31 -70 5 -103 -11 -14 -20 -36 -20 -49 0 -28 -14 -32 -26
-6 -4 9 -8 98 -9 197 0 99 -5 188 -10 197 -7 12 -10 -11 -11 -75 0 -51 -6
-105 -13 -122 l-13 -30 -12 30 c-27 62 -162 165 -217 165 -11 0 -19 2 -19 5 0
3 18 41 40 85 62 124 115 174 215 206 58 18 71 17 72 -8z m1029 -8 c57 -25
113 -86 162 -179 23 -43 42 -82 42 -87 0 -5 -23 -17 -50 -27 -54 -19 -174
-122 -186 -159 -5 -16 -8 -18 -15 -7 -7 12 -25 122 -22 139 14 93 13 96 -3 75
-13 -17 -15 -38 -10 -135 7 -117 -6 -266 -24 -284 -7 -7 -10 -2 -10 15 0 13
-9 39 -20 57 -26 42 -25 80 0 107 28 30 29 89 2 123 -42 51 -48 78 -36 160 4
30 2 49 -10 67 -15 22 -14 24 4 30 12 4 20 15 20 29 0 13 6 29 14 35 8 7 18
26 21 43 7 28 9 29 43 23 21 -4 55 -15 78 -25z m-721 -27 c-15 -35 -17 -61 -6
-68 15 -9 40 12 52 42 9 24 29 32 29 12 0 -17 -39 -68 -62 -80 -18 -9 -24 -8
-35 7 -24 32 -14 104 14 104 11 0 13 -5 8 -17z m328 -16 c9 -28 -8 -77 -29
-84 -18 -6 -62 39 -70 70 -9 37 8 34 26 -6 22 -48 45 -42 44 11 -1 47 14 52
29 9z m-289 14 c3 -5 -3 -20 -14 -32 l-19 -24 -1 26 c0 35 20 53 34 30z m250
-7 c3 -9 6 -25 6 -37 -1 -22 -1 -22 -20 2 -11 13 -20 29 -20 37 0 19 26 18 34
-2z m-162 -57 c13 -34 30 -30 42 9 17 57 19 60 24 35 9 -55 -25 -109 -58 -91
-22 12 -45 84 -33 103 5 8 9 6 11 -8 2 -11 8 -33 14 -48z m-327 33 c8 -24 -1
-40 -21 -40 -17 0 -28 24 -20 45 8 22 34 18 41 -5z m365 6 c0 -24 -12 -46 -21
-40 -15 9 -10 54 6 54 8 0 15 -6 15 -14z m375 -16 c0 -29 -32 -41 -41 -16 -9
24 4 48 23 44 12 -2 18 -12 18 -28z m-53 -38 c14 -6 15 -9 3 -26 -13 -18 -15
-18 -21 -2 -5 13 -9 14 -14 6 -4 -7 -13 -9 -19 -6 -16 10 -13 24 7 29 24 6 25
6 44 -1z m-652 -18 c0 -9 -5 -14 -12 -12 -18 6 -21 28 -4 28 9 0 16 -7 16 -16z
m38 4 c-6 -18 -28 -21 -28 -4 0 9 7 16 16 16 9 0 14 -5 12 -12z m-68 -24 c0
-16 -16 -19 -25 -4 -8 13 4 32 16 25 5 -4 9 -13 9 -21z m624 -5 c-3 -5 -14 -9
-25 -9 -16 0 -18 3 -7 19 9 15 16 17 25 9 7 -5 10 -14 7 -19z m-517 -17 c11
-27 11 -32 -1 -32 -21 0 -31 21 -15 31 10 6 8 9 -8 9 -23 0 -29 10 -16 24 12
12 27 0 40 -32z m613 19 c15 -30 13 -81 -4 -81 -23 0 -28 18 -9 29 12 7 13 10
4 11 -7 0 -11 6 -7 15 3 8 1 15 -4 15 -6 0 -10 7 -10 15 0 21 17 19 30 -4z
m-670 -16 c19 -23 8 -50 -20 -50 -16 0 -26 6 -28 18 -4 18 14 47 28 47 4 0 13
-7 20 -15z m634 -11 c14 -35 -25 -59 -52 -32 -16 16 -15 23 3 42 17 17 40 12
49 -10z m-701 1 c0 -6 -7 -11 -16 -13 -12 -3 -15 1 -11 13 7 17 25 17 27 0z
m625 -7 c-7 -19 -38 -22 -38 -4 0 10 9 16 21 16 12 0 19 -5 17 -12z m-268 -18
c0 -12 -28 -25 -36 -17 -9 9 6 27 22 27 8 0 14 -5 14 -10z m40 -6 c0 -9 -5
-14 -12 -12 -18 6 -21 28 -4 28 9 0 16 -7 16 -16z m-390 -9 c0 -8 -7 -15 -15
-15 -8 0 -15 7 -15 15 0 8 7 15 15 15 8 0 15 -7 15 -15z m622 -17 c-9 -9 -15
-9 -24 0 -10 10 -10 15 2 22 9 6 19 5 24 0 7 -7 6 -14 -2 -22z m-509 7 c-6
-17 -25 -15 -31 3 -2 7 5 12 17 12 14 0 19 -5 14 -15z m-97 -21 c-3 -9 -6 -18
-6 -21 0 -3 -7 0 -15 7 -13 11 -13 15 -3 21 21 13 31 10 24 -7z m69 -2 c0 -18
-20 -15 -23 4 -3 10 1 15 10 12 7 -3 13 -10 13 -16z m255 -10 c0 -16 -8 -32
-19 -39 -14 -9 -22 -33 -31 -85 -6 -40 -14 -81 -16 -90 -3 -10 -1 -18 4 -18 5
0 15 35 22 77 14 87 19 103 31 103 5 0 9 -94 9 -211 l0 -211 -39 -39 c-47 -47
-86 -52 -101 -14 -5 13 -12 46 -16 74 -5 41 -2 58 20 103 14 29 37 103 51 163
38 166 54 215 71 215 9 0 14 -10 14 -28z m58 11 c5 -10 21 -67 36 -128 34
-143 61 -232 77 -251 14 -17 13 -90 -2 -146 -12 -45 -35 -49 -86 -18 -60 36
-64 58 -61 284 2 152 6 202 15 199 6 -3 14 -17 17 -31 3 -15 11 -55 17 -89 6
-35 15 -63 19 -63 4 0 0 42 -9 93 -14 78 -19 94 -38 102 -14 6 -23 19 -23 31
0 36 23 46 38 17z m252 7 c0 -5 7 -7 15 -4 9 4 15 0 15 -9 0 -20 -16 -31 -25
-17 -4 6 -10 8 -15 5 -11 -7 -23 12 -15 25 8 13 25 13 25 0z m63 4 c9 -9 -4
-35 -14 -28 -5 3 -9 12 -9 20 0 14 12 19 23 8z m-659 -19 c4 -10 -1 -15 -14
-15 -20 0 -26 11 -13 23 10 11 20 8 27 -8z m-409 -63 c80 -40 155 -123 155
-171 -1 -24 -1 -25 -11 -6 -48 87 -124 152 -206 176 -23 6 -40 16 -37 20 6 11
61 0 99 -19z m1520 18 c3 -5 -14 -14 -37 -20 -24 -6 -66 -27 -94 -46 -50 -34
-114 -103 -114 -123 0 -6 -4 -11 -10 -11 -26 0 4 62 52 106 47 43 91 72 135
89 46 17 60 18 68 5z m-905 -36 c0 -9 -5 -14 -12 -12 -18 6 -21 28 -4 28 9 0
16 -7 16 -16z m210 0 c0 -9 -5 -14 -12 -12 -18 6 -21 28 -4 28 9 0 16 -7 16
-16z m-867 -10 c54 -18 134 -86 160 -137 l19 -35 -27 -41 c-29 -42 -49 -52
-58 -26 -17 43 -193 84 -245 56 -12 -6 -22 -9 -22 -5 0 12 111 204 119 204 4
0 28 -7 54 -16z m627 -6 c0 -5 -6 -8 -14 -5 -10 4 -12 0 -9 -14 3 -11 0 -19
-7 -19 -10 0 -10 -3 -1 -14 9 -11 9 -15 -1 -19 -8 -3 -6 -6 6 -6 13 -1 16 -6
12 -17 -5 -14 -4 -15 9 -4 9 8 15 8 15 2 0 -23 -24 -24 -42 -2 -22 27 -23 68
-2 98 15 22 34 22 34 0z m270 13 c0 -6 -4 -13 -10 -16 -5 -3 -10 1 -10 9 0 9
5 16 10 16 6 0 10 -4 10 -9z m682 -28 c36 -53 98 -159 98 -167 0 -3 -12 -1
-26 4 -34 13 -113 13 -155 -1 -19 -6 -51 -25 -72 -41 -35 -27 -40 -29 -55 -15
-9 9 -25 29 -35 45 -17 30 -17 31 16 74 50 66 139 127 198 137 4 1 18 -16 31
-36z m-1202 12 c0 -8 -4 -15 -9 -15 -13 0 -22 16 -14 24 11 11 23 6 23 -9z
m38 3 c-6 -18 -28 -21 -28 -4 0 9 7 16 16 16 9 0 14 -5 12 -12z m751 -9 c18
-17 20 -23 10 -30 -18 -11 -29 -2 -22 19 6 15 5 15 -10 3 -15 -12 -21 -9 -18
12 0 4 -3 7 -9 7 -5 0 -10 -4 -10 -10 0 -15 -17 -12 -24 5 -9 24 56 19 83 -6z
m-709 -20 c0 -5 -9 -9 -20 -9 -22 0 -23 1 -14 24 5 13 9 14 20 5 8 -6 14 -15
14 -20z m-105 -10 c-3 -4 -13 -5 -23 -2 -14 6 -15 4 -5 -9 12 -14 8 -28 -9
-28 -11 0 -10 27 3 51 8 16 13 18 25 9 7 -7 11 -16 9 -21z m299 4 c-9 -37 -14
-44 -25 -38 -13 9 -11 39 3 53 20 20 29 14 22 -15z m224 -2 c2 -13 -1 -28 -7
-34 -8 -8 -11 -7 -11 4 0 7 -3 25 -7 38 -4 18 -2 23 8 19 8 -2 16 -15 17 -27z
m42 14 c0 -8 -4 -15 -9 -15 -13 0 -22 16 -14 24 11 11 23 6 23 -9z m168 -3 c2
-7 -7 -12 -23 -12 -24 0 -26 2 -15 15 14 17 31 16 38 -3z m60 -45 c-4 -26 -36
-30 -51 -5 -8 12 -7 21 2 32 18 22 53 3 49 -27z m-734 17 c7 -19 -10 -44 -30
-44 -20 0 -36 34 -22 48 17 17 45 15 52 -4z m56 -9 c0 -8 -9 -15 -20 -15 -11
0 -20 7 -20 15 0 8 9 15 20 15 11 0 20 -7 20 -15z m460 5 c0 -5 -7 -10 -15
-10 -8 0 -15 5 -15 10 0 6 7 10 15 10 8 0 15 -4 15 -10z m140 -5 c0 -8 -7 -15
-15 -15 -8 0 -15 7 -15 15 0 8 7 15 15 15 8 0 15 -7 15 -15z m128 -3 c2 -7 -3
-12 -12 -12 -9 0 -16 7 -16 16 0 17 22 14 28 -4z m-856 -44 c-10 -10 -15 -10
-22 2 -6 9 -5 17 3 22 18 11 33 -10 19 -24z m578 23 c0 -18 -18 -21 -30 -6
-10 13 -9 15 9 15 11 0 21 -4 21 -9z m-460 -10 c0 -11 -48 -51 -61 -51 -5 0
-9 9 -9 20 0 22 10 26 27 9 9 -9 10 -7 6 10 -4 16 -1 21 16 21 11 0 21 -4 21
-9z m630 0 c0 -13 -26 -32 -33 -24 -14 13 -6 33 13 33 11 0 20 -4 20 -9z m100
5 c0 -2 -3 -12 -6 -20 -5 -13 -9 -14 -20 -5 -16 13 -9 29 12 29 8 0 14 -2 14
-4z m-300 -16 c0 -5 -4 -10 -10 -10 -5 0 -10 5 -10 10 0 6 5 10 10 10 6 0 10
-4 10 -10z m-510 -20 c0 -22 -1 -23 -24 -14 -18 7 -10 34 10 34 8 0 14 -9 14
-20z m734 4 c8 -22 8 -24 -8 -24 -18 0 -29 16 -21 30 9 15 22 12 29 -6z m41
-4 c0 -7 -6 -15 -12 -17 -8 -3 -13 4 -13 17 0 13 5 20 13 18 6 -3 12 -11 12
-18z m-915 -52 c1 -24 5 -62 9 -85 8 -41 7 -43 -15 -43 -12 0 -26 5 -29 10 -4
6 -22 9 -40 8 -19 -1 -37 1 -41 5 -4 3 8 24 27 46 46 53 69 84 69 93 0 4 5 8
10 8 6 0 10 -19 10 -42z m1066 0 c15 -24 39 -55 52 -70 29 -32 23 -46 -16 -40
-16 2 -33 -1 -36 -7 -11 -17 -59 -14 -53 3 3 8 9 46 13 85 3 39 8 71 9 71 1 0
15 -19 31 -42z m-928 -6 c-5 -27 -28 -26 -28 2 0 19 4 24 15 19 9 -3 15 -12
13 -21z m782 3 c0 -16 -6 -25 -15 -25 -15 0 -21 31 -8 43 13 14 23 6 23 -18z
m-1134 -24 c23 -10 51 -34 64 -52 l24 -34 -25 22 c-13 12 -46 32 -73 44 -79
35 -190 15 -233 -40 -7 -9 -13 -11 -13 -5 0 18 32 52 65 69 42 21 140 19 191
-4z m1654 -3 c18 -13 40 -34 49 -48 l16 -25 -33 27 c-66 55 -165 60 -251 12
-24 -13 -46 -22 -49 -20 -9 10 13 29 62 52 70 32 160 33 206 2z m-1252 -23 c6
-6 -8 -25 -19 -25 -5 0 -9 7 -9 16 0 14 -1 14 -16 0 -8 -9 -22 -16 -29 -16 -9
0 -12 -6 -9 -15 4 -9 0 -15 -10 -15 -22 0 -20 23 3 44 15 13 20 14 24 4 3 -8
6 -6 6 6 1 15 6 17 28 11 16 -4 30 -8 31 -10z m737 -10 c29 -28 32 -45 9 -45
-11 0 -15 6 -11 19 3 14 1 18 -9 14 -9 -3 -14 2 -14 13 0 17 -1 16 -15 -2 -14
-19 -14 -18 -15 4 0 29 24 29 55 -3z m-1129 -8 l29 -16 -66 -1 c-69 0 -129
-15 -129 -32 0 -5 4 -7 9 -3 19 11 114 25 137 19 l23 -6 -28 -37 c-49 -61 -66
-167 -36 -225 l15 -29 -46 7 c-152 20 -197 64 -188 181 9 111 78 170 190 162
33 -2 73 -12 90 -20z m1064 7 c0 -9 -5 -14 -12 -12 -18 6 -21 28 -4 28 9 0 16
-7 16 -16z m577 -10 c52 -39 66 -68 71 -148 5 -75 4 -76 -30 -110 -35 -35
-115 -66 -171 -66 -26 0 -28 2 -16 16 19 23 16 140 -5 189 -9 22 -26 49 -37
61 l-21 22 31 7 c16 3 47 2 68 -4 52 -15 74 -12 38 4 -16 8 -57 15 -90 15
l-60 2 40 19 c52 25 143 22 182 -7z m-1219 -12 c2 -7 -6 -12 -17 -12 -21 0
-27 11 -14 24 9 9 26 2 31 -12z m621 4 c7 -9 8 -17 2 -20 -15 -10 -40 5 -34
20 7 18 17 18 32 0z m-669 -26 c10 -18 8 -20 -20 -20 -18 0 -30 5 -30 13 0 32
34 37 50 7z m730 16 c0 -2 3 -11 6 -20 5 -13 -1 -16 -25 -16 -46 0 -40 36 7
39 6 1 12 -1 12 -3z m-580 -25 c0 -11 3 -26 6 -35 4 -11 1 -16 -10 -16 -12 0
-16 10 -16 35 0 19 5 35 10 35 6 0 10 -9 10 -19z m410 -16 c0 -24 -5 -35 -15
-35 -15 0 -22 50 -8 63 15 15 23 5 23 -28z m-880 19 c0 -3 -13 -16 -29 -30
-62 -52 -80 -197 -31 -249 24 -26 23 -29 -5 -19 -41 16 -58 114 -34 195 14 44
64 109 85 109 8 0 14 -3 14 -6z m380 -4 c0 -5 -9 -10 -20 -10 -11 0 -20 5 -20
10 0 6 9 10 20 10 11 0 20 -4 20 -10z m600 0 c12 -8 11 -10 -7 -10 -13 0 -23
5 -23 10 0 13 11 13 30 0z m401 -21 c36 -38 63 -127 56 -182 -6 -41 -33 -87
-56 -95 -8 -3 -3 10 10 27 45 61 20 215 -41 253 -22 14 -26 28 -9 28 6 0 24
-14 40 -31z m-1309 -12 c-26 -27 -40 -63 -42 -108 -4 -66 0 -87 25 -123 20
-30 21 -35 7 -27 -72 39 -78 196 -10 264 33 34 52 29 20 -6z m175 27 c-3 -3
-12 -4 -19 -1 -8 3 -5 6 6 6 11 1 17 -2 13 -5z m853 -4 c0 -5 -4 -10 -9 -10
-6 0 -13 5 -16 10 -3 6 1 10 9 10 9 0 16 -4 16 -10z m162 -1 c54 -29 78 -182
38 -246 -11 -18 -28 -33 -37 -33 -17 1 -17 1 -1 11 19 11 38 68 38 114 0 49
-20 106 -46 132 -34 34 -31 43 8 22z m-1244 -30 c-30 -40 -38 -161 -15 -208
15 -31 15 -31 -13 -31 -40 0 -60 32 -60 98 0 62 17 107 55 145 39 38 62 36 33
-4z m391 10 c-16 -30 -2 -122 22 -153 18 -22 18 -26 4 -26 -21 0 -55 75 -55
123 0 41 14 77 31 77 6 0 5 -8 -2 -21z m534 -19 c16 -62 -22 -160 -62 -160
-14 1 -14 2 1 10 31 18 51 119 34 169 -6 17 -5 22 5 19 7 -2 17 -19 22 -38z
m406 5 c36 -42 55 -105 47 -158 -10 -59 -23 -77 -56 -77 l-29 0 16 37 c20 50
13 150 -15 198 -29 47 -5 47 37 0z m-987 -24 c-3 -34 1 -61 16 -94 l20 -46
-66 -15 c-144 -32 -242 -48 -256 -43 -36 14 -38 156 -2 211 16 25 20 26 149
29 72 1 135 4 138 5 3 1 4 -20 1 -47z m898 -5 c33 -69 21 -197 -18 -196 -17 1
-160 28 -265 50 -56 13 -57 13 -40 32 12 13 19 41 21 88 l4 69 127 3 c69 2
131 1 138 0 7 -2 21 -23 33 -46z m-820 -1 c0 -25 7 -62 15 -82 19 -44 13 -54
-11 -18 -21 32 -33 145 -15 145 6 0 11 -19 11 -45z m466 -19 c-7 -46 -32 -104
-41 -94 -3 2 2 26 10 53 8 26 15 61 15 77 0 19 4 27 11 22 7 -4 9 -24 5 -58z
m-421 -13 c3 -21 13 -49 22 -61 17 -27 10 -41 -11 -23 -19 16 -50 107 -41 121
11 17 22 2 30 -37z m375 -22 c-6 -22 -18 -47 -26 -56 -21 -21 -40 -8 -20 14 9
10 19 33 22 52 4 19 12 40 18 48 17 21 20 -8 6 -58z m-190 29 c0 -5 -4 -10
-10 -10 -5 0 -10 5 -10 10 0 6 5 10 10 10 6 0 10 -4 10 -10z m-10 -34 c0 -34
-11 -46 -30 -33 -18 10 -18 13 -3 29 19 22 33 23 33 4z m48 -20 c-2 -1 -11 -8
-20 -15 -16 -12 -18 -10 -18 19 0 32 0 33 20 15 11 -10 19 -19 18 -19z m-78
-49 c0 -10 -16 -31 -35 -48 -29 -26 -35 -38 -35 -71 0 -43 31 -98 56 -98 9 0
14 -11 14 -30 0 -18 -5 -30 -12 -30 -23 1 -52 30 -53 52 0 29 -29 46 -54 31
-22 -14 -31 -8 -31 22 0 24 -30 56 -74 76 -64 31 -58 71 11 71 21 0 44 5 52
11 7 6 26 10 42 9 20 -3 29 1 29 10 0 8 12 19 28 24 32 12 62 -2 62 -29z m143
26 c9 -3 17 -12 17 -20 0 -10 9 -14 28 -12 15 2 34 -1 42 -6 8 -5 33 -12 55
-15 28 -3 41 -10 43 -23 5 -25 -23 -53 -58 -60 -29 -6 -47 -29 -53 -66 -5 -29
-12 -34 -35 -20 -28 17 -52 5 -52 -27 0 -29 -24 -53 -53 -54 -29 0 -16 42 22
77 30 26 34 36 34 76 0 49 -19 81 -54 92 -11 4 -19 14 -19 22 0 25 31 55 49
47 9 -3 24 -9 34 -11z m-93 -28 c0 -8 -7 -15 -15 -15 -8 0 -15 7 -15 15 0 8 7
15 15 15 8 0 15 -7 15 -15z m-336 -49 c-8 -20 -33 -28 -52 -17 -15 8 -15 10
-2 15 8 2 22 7 30 9 25 9 30 8 24 -7z m316 -6 c0 -23 -10 -26 -29 -7 -11 10
-12 8 -6 -10 5 -17 2 -23 -9 -23 -27 0 -30 22 -5 41 31 24 49 24 49 -1z m54
-1 c28 -22 26 -39 -5 -39 -21 0 -24 10 -9 28 7 9 7 9 -2 2 -18 -15 -28 -12
-28 10 0 25 11 25 44 -1z m324 7 c7 -8 -9 -26 -22 -26 -7 0 -21 10 -32 22
l-19 21 34 -7 c19 -3 36 -8 39 -10z m-740 -36 c6 0 19 -14 27 -31 15 -28 15
-32 0 -49 -10 -11 -31 -18 -55 -18 -43 -1 -43 -1 -54 80 -4 32 -2 37 17 40 12
2 29 -2 38 -9 8 -7 21 -13 27 -13z m796 24 c19 -7 22 -74 6 -105 -13 -23 -67
-26 -95 -5 -16 11 -17 19 -9 46 6 21 16 34 29 36 11 2 24 10 30 18 11 18 16
19 39 10z m-730 -31 c8 -20 -15 -37 -26 -20 -12 19 -9 37 6 37 8 0 17 -8 20
-17z m626 -2 c0 -22 -16 -36 -24 -22 -8 12 3 41 15 41 5 0 9 -9 9 -19z m-300
-27 c0 -29 -24 -41 -45 -24 -19 16 -19 25 0 44 21 20 45 9 45 -20z m-81 13
c12 -15 5 -27 -16 -27 -7 0 -13 9 -13 20 0 23 13 26 29 7z m141 -7 c0 -11 -6
-20 -14 -20 -21 0 -31 21 -15 31 22 14 29 11 29 -11z m-303 -27 c17 -22 17
-36 1 -30 -7 2 -12 11 -12 19 1 15 -33 17 -55 3 -26 -15 -1 -70 29 -63 7 2 15
-3 18 -11 3 -11 -2 -12 -24 -7 -50 13 -70 62 -38 98 20 21 63 17 81 -9z m505
10 c8 -10 18 -26 21 -35 8 -23 -27 -66 -53 -64 -29 1 -30 19 -2 21 27 2 44 23
37 43 -3 8 -5 17 -5 22 0 4 -8 7 -17 5 -10 -2 -24 -4 -30 -4 -7 -1 -13 -8 -13
-16 0 -8 -4 -15 -10 -15 -17 0 -11 22 12 41 26 24 41 24 60 2z m-331 -26 c-17
-17 -13 -31 4 -17 17 14 28 8 31 -15 3 -21 -19 -19 -50 6 -30 24 -33 36 -8 42
24 5 36 -3 23 -16z m119 3 c0 -13 -41 -50 -57 -50 -7 0 -13 9 -13 20 0 23 10
26 29 8 11 -11 12 -9 6 10 -5 18 -2 22 14 22 12 0 21 -4 21 -10z m-322 -23 c2
-10 -3 -17 -12 -17 -18 0 -29 16 -21 31 9 14 29 6 33 -14z m522 3 c0 -11 -6
-20 -14 -20 -18 0 -29 16 -21 30 11 18 35 11 35 -10z m-700 -30 c0 -3 -4 -11
-9 -19 -12 -19 -31 -4 -31 25 0 22 2 23 20 12 11 -7 20 -15 20 -18z m890 -6
c0 -17 -5 -24 -20 -24 -22 0 -27 29 -8 48 16 16 28 6 28 -24z m-790 0 c0 -16
-16 -19 -25 -4 -8 13 4 32 16 25 5 -4 9 -13 9 -21z m118 14 c-6 -18 -28 -21
-28 -4 0 9 7 16 16 16 9 0 14 -5 12 -12z m433 -3 c1 -17 -18 -17 -25 0 -4 11
-1 15 10 13 8 -2 15 -7 15 -13z m124 5 c9 -15 -3 -30 -20 -24 -7 3 -11 12 -8
20 6 16 19 18 28 4z m-725 -15 c15 -18 6 -45 -15 -45 -18 0 -30 24 -21 45 7
19 20 19 36 0z m257 -1 c8 -21 -13 -42 -28 -27 -13 13 -5 43 11 43 6 0 13 -7
17 -16z m264 0 c10 -13 10 -17 -2 -24 -17 -11 -45 13 -35 29 10 15 21 14 37
-5z m267 -18 c-2 -13 -10 -21 -23 -21 -23 0 -33 34 -14 45 20 13 40 -1 37 -24z
m-580 -6 c7 -11 21 -20 32 -20 27 0 90 -39 90 -56 0 -12 -4 -13 -22 -3 -70 36
-137 82 -133 90 9 14 19 11 33 -11z m365 13 c9 -8 -29 -34 -105 -74 -38 -19
-58 -25 -58 -17 0 15 77 58 103 58 11 0 21 9 24 20 5 20 23 26 36 13z m-487
-19 c18 -12 30 -14 46 -7 17 7 33 1 85 -34 36 -24 71 -43 79 -43 8 0 14 -7 14
-16 0 -15 -11 -16 -97 -10 -161 12 -293 48 -293 80 0 20 27 27 40 10 18 -20
35 -18 67 11 34 29 28 29 59 9z m304 1 c0 -8 -7 -15 -15 -15 -8 0 -15 7 -15
15 0 8 7 15 15 15 8 0 15 -7 15 -15z m328 -6 c24 -22 40 -24 85 -13 20 5 27 3
27 -9 0 -34 -138 -72 -305 -83 -84 -6 -95 -5 -95 10 0 9 6 16 13 16 7 0 43 18
80 40 45 28 74 39 89 35 13 -3 34 1 48 9 34 19 33 19 58 -5z m-1003 -45 c100
-60 145 -101 145 -134 0 -35 -13 -45 -31 -24 -13 16 -76 58 -163 109 -86 50
-42 11 74 -65 63 -42 110 -79 110 -89 0 -8 -9 -38 -21 -66 l-21 -51 -116 58
c-63 32 -118 56 -120 53 -7 -7 -8 -7 116 -69 61 -32 112 -63 112 -69 0 -27
-17 -39 -37 -29 -33 18 -196 72 -201 67 -3 -2 6 -9 19 -14 13 -5 62 -23 109
-41 47 -18 86 -34 88 -35 2 -2 0 -14 -4 -29 -5 -20 -10 -24 -23 -17 -27 14
-182 53 -188 47 -3 -2 42 -20 99 -38 l105 -33 -9 -34 c-9 -32 -11 -33 -46 -27
-60 10 -105 24 -140 46 -31 19 -33 25 -31 63 1 23 -1 50 -6 60 -4 10 -3 28 2
40 7 14 7 31 1 47 -6 17 -5 33 3 50 7 14 11 35 10 48 -1 13 5 34 13 47 9 13
16 34 16 46 0 11 9 32 20 46 11 14 20 33 20 43 0 40 21 39 95 -6z m1403 24 c7
-7 12 -22 12 -34 0 -12 7 -24 15 -28 9 -3 15 -18 15 -39 0 -19 7 -40 15 -47 9
-7 15 -29 15 -51 0 -21 5 -41 10 -44 6 -4 10 -28 10 -53 -1 -26 -1 -56 -1 -67
0 -20 -5 -99 -7 -122 -3 -17 -45 -37 -129 -61 -80 -22 -70 -27 -88 37 -5 17 7
23 96 51 55 17 99 34 96 37 -3 2 -47 -7 -97 -21 -94 -28 -110 -27 -110 3 0 13
22 26 83 48 45 17 92 34 105 38 12 3 22 10 22 15 0 8 -132 -35 -201 -64 -12
-5 -18 0 -23 20 -4 14 -6 27 -4 28 2 1 54 26 115 56 62 29 111 56 108 58 -5 5
-75 -24 -169 -69 -33 -16 -61 -29 -63 -29 -4 0 -18 33 -38 90 l-13 34 109 75
c60 40 107 76 104 79 -3 3 -52 -26 -109 -65 l-104 -70 -5 31 c-6 37 9 52 123
127 81 52 90 55 108 37z m-721 -42 c-4 -9 -16 -16 -27 -16 -15 0 -20 7 -20 24
0 13 6 26 13 29 18 7 41 -19 34 -37z m-455 -5 c18 -11 50 -23 70 -26 32 -6 37
-11 33 -29 -2 -11 -9 -70 -15 -131 -6 -60 -15 -141 -21 -180 -9 -68 -39 -400
-39 -440 0 -19 -6 -21 -58 -20 -47 0 -58 3 -56 15 2 8 8 51 13 95 41 311 54
401 71 485 31 155 35 201 17 194 -23 -8 -57 14 -57 36 0 25 1 25 42 1z m908
-7 c0 -38 -172 -72 -401 -81 -181 -7 -393 10 -386 31 3 7 27 9 73 6 38 -3 157
-5 264 -5 207 1 325 17 399 55 38 19 51 18 51 -6z m-430 -29 c0 -7 -19 -13
-50 -14 -36 -1 -48 2 -45 11 7 17 95 19 95 3z m-499 -20 c-1 -15 -24 -12 -29
3 -3 9 2 13 12 10 10 -1 17 -7 17 -13z m944 -60 c11 -101 -5 -115 -24 -20 -10
50 -13 83 -7 87 18 12 24 -2 31 -67z m-914 42 c-6 -8 -9 -16 -6 -18 2 -3 -1
-23 -7 -45 -6 -21 -11 -42 -10 -46 1 -5 -3 -8 -9 -8 -6 0 -8 7 -5 16 3 8 1 24
-4 34 -8 15 -6 21 11 30 11 7 18 14 16 17 -3 2 -15 -1 -27 -7 -15 -8 -19 -17
-14 -32 4 -14 2 -18 -5 -14 -6 4 -11 3 -11 -3 0 -5 5 -13 10 -16 6 -3 10 -11
10 -16 0 -6 -5 -7 -12 -3 -7 4 -8 3 -4 -4 4 -7 14 -12 22 -12 8 0 14 -7 14
-15 0 -18 -5 -18 -31 -5 -17 10 -19 18 -14 68 3 31 10 59 16 61 7 2 6 7 -2 13
-10 7 -9 8 6 4 11 -3 27 -1 35 4 22 14 34 12 21 -3z m864 -8 c4 -13 1 -27 -10
-39 -16 -17 -15 -19 4 -30 12 -6 21 -15 21 -21 0 -5 -13 -3 -30 6 -36 18 -37
31 -8 62 20 22 21 23 2 23 -38 0 -43 -12 -35 -73 9 -67 13 -72 39 -58 27 14
45 14 40 -1 -4 -10 -78 -42 -84 -36 -1 2 -6 41 -11 87 -9 79 -8 83 11 91 35
14 54 11 61 -11z m-721 -5 c9 -3 14 -10 11 -15 -3 -4 -12 -6 -20 -2 -11 4 -13
1 -9 -11 3 -9 1 -16 -5 -16 -12 0 -14 11 -5 34 7 18 7 18 28 10z m628 -19 c6
-28 -4 -32 -23 -9 -8 10 -21 13 -36 9 -13 -3 -23 -1 -23 4 0 9 24 16 61 20 10
0 19 -9 21 -24z m-516 5 c13 0 24 -5 24 -10 0 -6 -15 -8 -40 -4 -39 6 -40 6
-40 -23 0 -17 -3 -51 -6 -76 l-7 -46 42 -7 c64 -10 51 -28 -16 -20 -31 4 -58
8 -60 9 -1 2 3 45 9 96 l11 93 30 -6 c16 -3 40 -6 53 -6z m426 -81 c4 -46 4
-87 0 -90 -12 -12 -112 -22 -112 -11 0 5 18 12 41 15 22 3 42 7 44 9 2 2 1 35
-3 73 l-7 70 -43 -2 c-58 -2 -53 15 6 20 26 2 52 3 57 2 6 -1 13 -39 17 -86z
m153 81 c-3 -5 -11 -10 -16 -10 -6 0 -7 5 -4 10 3 6 11 10 16 10 6 0 7 -4 4
-10z m-283 -95 c3 -49 3 -92 1 -95 -3 -3 -63 -7 -134 -9 l-129 -3 0 94 c0 52
2 97 4 99 3 2 61 4 129 4 l125 0 4 -90z m178 75 c0 -5 -4 -10 -10 -10 -5 0
-10 5 -10 10 0 6 5 10 10 10 6 0 10 -4 10 -10z m-578 -25 c-3 -20 -7 -23 -18
-14 -11 9 -11 15 -3 25 18 21 27 17 21 -11z m98 17 c0 -4 -9 -13 -20 -20 -18
-11 -20 -10 -20 8 0 13 7 20 20 20 11 0 20 -3 20 -8z m390 -12 c0 -21 -15 -27
-25 -10 -3 6 -12 10 -18 10 -7 0 1 -10 16 -23 l28 -22 -35 -34 c-41 -40 -49
-31 -10 10 l26 27 -31 18 c-32 19 -43 38 -16 28 8 -4 15 -1 15 5 0 6 11 11 25
11 18 0 25 -5 25 -20z m69 6 c9 -10 8 -16 -4 -26 -13 -11 -15 -8 -15 14 0 30
3 32 19 12z m171 4 c0 -5 -4 -10 -10 -10 -5 0 -10 5 -10 10 0 6 5 10 10 10 6
0 10 -4 10 -10z m-625 -36 l-29 -23 29 -31 c33 -35 23 -41 -14 -7 l-25 22 16
-26 c16 -25 16 -26 -7 -21 -20 3 -22 7 -15 28 5 13 7 29 5 36 -5 13 56 60 65
51 3 -3 -8 -15 -25 -29z m525 2 c0 -8 -7 -19 -16 -26 -12 -11 -18 -11 -30 2
-13 13 -14 19 -3 36 10 16 17 18 31 11 10 -5 18 -16 18 -23z m-655 -4 c0 -18
-20 -15 -23 4 -3 10 1 15 10 12 7 -3 13 -10 13 -16z m735 -24 c0 -5 -7 -8 -15
-8 -8 0 -15 2 -15 4 0 2 -3 12 -6 21 -6 15 -4 15 15 4 11 -8 21 -17 21 -21z
m-580 -5 c0 -25 -1 -26 -16 -11 -9 9 -13 21 -10 27 13 20 26 11 26 -16z m314
18 c3 -5 -1 -14 -9 -21 -13 -10 -15 -9 -15 9 0 21 14 28 24 12z m-447 -13 c-2
-7 -10 -12 -16 -10 -6 1 -11 -5 -11 -14 0 -8 4 -13 9 -9 5 3 9 -7 9 -23 -1
-25 -4 -28 -24 -24 -30 6 -31 22 -1 22 l22 0 -23 18 -24 18 24 17 c28 19 41
21 35 5z m573 -9 c0 -5 -4 -9 -10 -9 -5 0 -10 7 -10 16 0 8 5 12 10 9 6 -3 10
-10 10 -16z m70 -24 c0 -23 -5 -35 -14 -35 -7 0 -28 -3 -45 -6 -26 -6 -31 -4
-31 13 0 16 5 19 29 15 24 -3 29 0 35 22 9 38 26 32 26 -9z m-40 4 c0 -5 -7
-9 -15 -9 -15 0 -20 12 -9 23 8 8 24 -1 24 -14z m-110 -9 c0 -14 -7 -20 -22
-20 -20 0 -21 1 -3 20 10 11 20 20 22 20 1 0 3 -9 3 -20z m327 -75 c41 -108
47 -135 30 -135 -25 0 -69 42 -87 84 l-19 41 1 -40 c2 -82 -24 -112 -82 -95
-18 5 -44 19 -57 31 -12 13 -24 21 -26 18 -2 -2 -8 -17 -15 -33 -11 -25 -16
-28 -50 -24 -20 3 -44 8 -53 12 -25 11 -52 -22 -45 -54 6 -33 -15 -65 -47 -74
-13 -3 -30 -20 -40 -40 -22 -47 -59 -57 -93 -25 -13 12 -24 28 -24 35 0 7 -10
19 -22 25 -13 6 -33 20 -45 31 -18 17 -20 24 -10 45 10 22 8 28 -11 44 -21 16
-26 16 -58 3 -44 -19 -58 -14 -84 28 -19 32 -19 32 0 50 28 26 26 56 -4 64
-14 3 -30 3 -35 -1 -12 -7 -13 -3 -5 18 4 11 13 13 42 6 20 -4 59 -11 86 -14
46 -6 47 -7 27 -21 -39 -28 -17 -79 31 -72 29 4 36 42 12 69 -16 18 -15 19 55
16 39 -1 71 -4 71 -7 -1 -3 -7 -14 -15 -24 -19 -25 -19 -31 1 -51 13 -12 14
-19 5 -28 -15 -15 -14 -44 1 -49 9 -3 8 -9 -5 -22 -21 -22 -22 -40 -1 -60 35
-36 86 -6 66 39 -7 14 -17 25 -24 25 -8 0 -6 5 5 11 19 11 22 40 6 56 -9 9 -8
16 5 28 20 21 20 29 0 50 -9 9 -14 19 -10 22 11 12 126 15 126 4 0 -6 -4 -11
-10 -11 -5 0 -10 -13 -10 -30 0 -24 5 -31 26 -36 51 -13 73 55 23 71 -26 9
-19 15 23 21 53 8 131 22 163 30 30 7 30 7 12 -14 -22 -24 -19 -50 6 -66 41
-26 74 35 37 69 -20 19 -20 19 32 45 29 14 56 23 59 20 3 -3 19 -41 36 -85z
m-1010 13 c-7 -49 -52 -126 -83 -140 -13 -6 -26 -9 -29 -7 -6 7 24 117 47 171
20 47 20 47 45 31 22 -14 24 -22 20 -55z m881 -26 c3 -16 -2 -22 -16 -22 -24
0 -35 23 -19 39 16 16 31 8 35 -17z m-711 -18 c8 -20 -8 -36 -26 -25 -15 10
-8 41 9 41 6 0 13 -7 17 -16z m151 -22 c3 -17 -2 -22 -17 -22 -14 0 -21 6 -21
18 0 38 33 41 38 4z m168 -21 c-9 -14 -33 -14 -41 -1 -4 6 -1 18 6 26 11 13
14 13 27 0 8 -8 11 -19 8 -25z m162 16 c2 -11 -3 -17 -17 -17 -23 0 -35 15
-26 31 10 15 39 6 43 -14z m-505 -38 c-6 -20 -21 -34 -29 -26 -10 10 8 56 21
51 7 -3 11 -14 8 -25z m337 -45 c0 -8 -7 -14 -15 -14 -15 0 -21 21 -9 33 10 9
24 -2 24 -19z m-172 -42 c4 -25 -23 -41 -40 -24 -7 7 -6 17 2 32 14 26 34 22
38 -8z m350 1 c4 -24 -26 -40 -34 -18 -8 21 3 47 19 43 6 -3 13 -14 15 -25z
m-406 -15 c2 -13 11 -24 21 -26 30 -6 77 -64 65 -79 -6 -7 -7 -24 -4 -38 7
-26 29 -32 55 -16 10 6 24 2 43 -12 l28 -21 31 23 c23 17 34 20 42 12 31 -31
78 9 57 49 -8 15 -6 24 10 40 11 11 20 24 20 29 0 5 10 11 23 13 12 2 26 13
32 26 5 12 16 22 23 22 10 0 12 -29 10 -132 l-3 -133 -65 -24 c-84 -32 -221
-35 -327 -8 -108 28 -104 21 -96 170 4 93 10 127 19 127 7 0 14 -10 16 -22z
m232 -14 c7 -19 -1 -34 -19 -34 -18 0 -28 17 -21 35 7 20 32 19 40 -1z m-100
-100 c10 -26 7 -34 -14 -34 -13 0 -20 7 -20 18 0 33 23 44 34 16z m190 0 c7
-19 -1 -34 -19 -34 -8 0 -16 4 -19 9 -9 14 4 41 19 41 7 0 16 -7 19 -16z"/>
<path d="M1500 3466 c-18 -22 -5 -48 22 -44 17 2 23 10 23 28 0 29 -26 38 -45
16z m35 -16 c0 -7 -6 -15 -12 -17 -8 -3 -13 4 -13 17 0 13 5 20 13 18 6 -3 12
-11 12 -18z"/>
<path d="M1282 3448 c-18 -18 -15 -36 9 -48 26 -14 51 4 47 34 -3 24 -37 33
-56 14z m38 -18 c0 -11 -7 -20 -15 -20 -15 0 -21 21 -8 33 12 13 23 7 23 -13z"/>
<path d="M1717 3454 c-12 -12 -8 -41 8 -54 20 -17 47 5 43 34 -3 21 -37 34
-51 20z m39 -15 c10 -17 -13 -36 -27 -22 -12 12 -4 33 11 33 5 0 12 -5 16 -11z"/>
<path d="M1090 3376 c0 -27 26 -59 41 -51 13 9 11 49 -3 63 -20 20 -38 14 -38
-12z m40 -28 c0 -5 -4 -8 -10 -8 -5 0 -10 10 -10 23 0 18 2 19 10 7 5 -8 10
-18 10 -22z"/>
<path d="M1922 3388 c-13 -13 -16 -50 -5 -61 12 -13 33 15 33 44 0 31 -9 36
-28 17z m14 -46 c-12 -11 -18 7 -10 30 l8 23 4 -23 c2 -13 1 -26 -2 -30z"/>
<path d="M1393 3363 c-18 -7 -16 -52 3 -60 23 -9 51 23 38 44 -12 19 -23 24
-41 16z m27 -28 c0 -8 -7 -15 -15 -15 -8 0 -15 7 -15 15 0 8 7 15 15 15 8 0
15 -7 15 -15z"/>
<path d="M1192 3318 c-18 -18 -15 -36 9 -49 28 -15 54 9 44 40 -7 23 -34 28
-53 9z m41 -12 c7 -16 -1 -26 -20 -26 -7 0 -13 9 -13 20 0 23 25 27 33 6z"/>
<path d="M1297 3323 c-4 -3 -7 -15 -7 -25 0 -10 -4 -18 -10 -18 -16 0 -12 -40
5 -46 26 -10 65 5 76 30 9 20 8 27 -10 45 -21 21 -42 27 -54 14z m33 -18 c0
-8 -7 -15 -15 -15 -8 0 -15 7 -15 15 0 8 7 15 15 15 8 0 15 -7 15 -15z m24
-28 c-11 -30 -74 -44 -74 -17 0 13 29 20 36 8 4 -7 10 -5 16 6 11 19 30 22 22
3z"/>
<path d="M1098 3258 c23 -8 32 -17 32 -33 0 -25 28 -41 43 -26 6 6 15 5 24 -5
20 -19 37 -18 59 7 18 20 18 21 0 35 -21 15 -51 1 -40 -18 4 -6 10 -5 15 3 4
7 11 10 14 7 11 -11 -5 -28 -26 -28 -11 0 -23 10 -29 24 -11 30 -15 32 -75 39
-46 5 -47 5 -17 -5z m72 -34 c0 -8 -7 -14 -15 -14 -15 0 -21 21 -9 33 10 9 24
-2 24 -19z"/>
<path d="M1024 3236 c-10 -26 4 -48 28 -44 17 2 23 10 23 28 0 18 -6 26 -23
28 -13 2 -25 -3 -28 -12z m42 -7 c10 -17 -13 -36 -27 -22 -12 12 -4 33 11 33
5 0 12 -5 16 -11z"/>
<path d="M960 3180 c-11 -7 -12 -14 -4 -27 18 -29 41 -38 58 -24 20 17 21 51
2 51 -8 0 -20 2 -28 5 -7 3 -20 0 -28 -5z m30 -15 c0 -8 -4 -15 -9 -15 -13 0
-22 16 -14 24 11 11 23 6 23 -9z m28 -12 c-2 -10 -11 -19 -21 -21 -16 -3 -17
-1 -5 17 16 25 31 27 26 4z"/>
<path d="M931 3149 c-1 -32 -3 -36 -25 -32 -29 6 -44 -24 -22 -45 19 -19 46
-8 46 18 l0 21 26 -20 c15 -12 32 -21 38 -21 6 0 -2 10 -17 23 -16 12 -32 38
-37 57 l-8 35 -1 -36z m-11 -54 c0 -8 -7 -15 -15 -15 -8 0 -15 7 -15 15 0 8 7
15 15 15 8 0 15 -7 15 -15z"/>
<path d="M1610 3356 c-27 -33 18 -72 48 -42 13 13 14 20 6 34 -15 23 -38 26
-54 8z m40 -21 c0 -8 -7 -15 -15 -15 -8 0 -15 7 -15 15 0 8 7 15 15 15 8 0 15
-7 15 -15z"/>
<path d="M1708 3320 c-7 -11 -18 -20 -25 -20 -20 0 -15 -19 12 -45 28 -29 57
-32 75 -10 10 12 10 19 2 27 -7 7 -12 20 -12 30 0 9 -9 22 -20 28 -16 8 -22 7
-32 -10z m37 -11 c10 -15 -1 -23 -20 -15 -9 3 -13 10 -10 16 8 13 22 13 30 -1z
m-31 -26 c4 -5 17 -8 29 -8 26 0 33 -20 10 -29 -10 -4 -22 -1 -28 7 -5 8 -14
14 -20 15 -12 1 -20 22 -7 22 5 0 12 -3 16 -7z"/>
<path d="M1817 3329 c-22 -13 -22 -55 -1 -63 34 -13 60 38 31 62 -8 7 -18 7
-30 1z m29 -20 c10 -17 -13 -36 -27 -22 -12 12 -4 33 11 33 5 0 12 -5 16 -11z"/>
<path d="M1638 3283 c7 -3 16 -2 19 1 4 3 -2 6 -13 5 -11 0 -14 -3 -6 -6z"/>
<path d="M1907 3261 c-27 -4 -41 -13 -50 -31 -15 -30 -57 -40 -57 -15 0 11 5
15 15 11 8 -3 15 -1 15 5 0 6 -10 9 -22 7 -33 -4 -35 -35 -4 -49 21 -10 29 -9
44 4 14 13 21 14 30 5 15 -15 44 9 37 32 -4 12 4 19 32 27 42 11 20 14 -40 4z
m-7 -37 c0 -16 -16 -19 -25 -4 -8 13 4 32 16 25 5 -4 9 -13 9 -21z"/>
<path d="M1964 3236 c-10 -26 4 -48 28 -44 17 2 23 10 23 28 0 18 -6 26 -23
28 -13 2 -25 -3 -28 -12z m42 -7 c8 -14 -11 -33 -25 -25 -11 7 -4 36 9 36 5 0
12 -5 16 -11z"/>
<path d="M2040 3183 c-23 -9 -30 -25 -19 -45 19 -36 75 -11 67 29 -3 19 -23
25 -48 16z m40 -24 c0 -5 -7 -9 -15 -9 -15 0 -20 12 -9 23 8 8 24 -1 24 -14z
m-25 -27 c-8 -8 -25 10 -25 26 0 13 2 13 14 -4 8 -10 13 -21 11 -22z"/>
<path d="M2108 3153 c-4 -17 -20 -43 -35 -57 -15 -14 -22 -26 -15 -26 7 0 25
12 39 28 22 23 25 24 19 6 -8 -25 16 -49 39 -40 18 6 20 37 4 53 -6 6 -17 9
-25 6 -8 -3 -14 6 -16 29 l-3 33 -7 -32z m52 -56 c0 -8 -3 -17 -7 -20 -9 -9
-34 13 -27 24 8 14 34 11 34 -4z"/>
<path d="M2077 3277 c-8 -21 8 -39 29 -35 27 5 25 42 -2 46 -12 2 -24 -3 -27
-11z m33 -12 c0 -8 -4 -15 -10 -15 -5 0 -10 7 -10 15 0 8 5 15 10 15 6 0 10
-7 10 -15z"/>
<path d="M922 3268 c4 -30 43 -33 43 -3 0 13 -8 21 -23 23 -20 3 -23 0 -20
-20z m36 1 c-2 -6 -8 -10 -13 -10 -5 0 -11 4 -13 10 -2 6 4 11 13 11 9 0 15
-5 13 -11z"/>
<path d="M1123 3103 c-16 -6 -17 -39 -3 -48 13 -8 40 13 40 30 0 15 -19 24
-37 18z m13 -30 c-10 -10 -19 5 -10 18 6 11 8 11 12 0 2 -7 1 -15 -2 -18z"/>
<path d="M1890 3081 c0 -22 29 -36 43 -22 15 15 0 41 -23 41 -13 0 -20 -7 -20
-19z m31 -4 c-1 -12 -15 -9 -19 4 -3 6 1 10 8 8 6 -3 11 -8 11 -12z"/>
<path d="M1315 3023 c-42 -10 -80 -65 -59 -85 3 -3 19 1 36 9 29 15 110 13
151 -3 15 -5 31 21 21 37 -16 26 -108 52 -149 42z m110 -44 c7 -7 1 -8 -20 -3
-16 5 -49 8 -72 7 -26 0 -40 3 -36 9 7 13 113 2 128 -13z"/>
<path d="M1634 3011 c-50 -23 -61 -38 -42 -57 10 -11 22 -12 48 -4 49 14 86
12 121 -5 27 -14 30 -14 36 0 9 25 -16 63 -50 75 -42 14 -66 12 -113 -9z m124
-30 c3 -9 0 -11 -8 -6 -6 4 -29 7 -51 7 -21 -1 -39 3 -39 7 0 15 93 7 98 -8z
m-108 5 c0 -2 -7 -7 -16 -10 -8 -3 -12 -2 -9 4 6 10 25 14 25 6z"/>
<path d="M1315 2899 c-32 -18 -45 -40 -45 -74 0 -37 29 -69 57 -62 14 3 13 5
-9 11 -52 15 -43 83 13 107 37 15 67 4 90 -34 24 -40 24 -56 2 -73 -10 -7 -13
-14 -7 -14 37 -1 40 78 5 121 -19 24 -78 34 -106 18z"/>
<path d="M1663 2903 c-27 -5 -37 -18 -52 -64 -12 -39 -7 -64 14 -73 11 -4 11
0 0 21 -12 22 -12 31 1 54 26 51 80 62 118 23 24 -24 20 -71 -6 -85 -15 -8
-18 -14 -10 -17 18 -6 51 39 52 69 0 52 -54 86 -117 72z"/>
<path d="M1481 2840 c-1 -40 -8 -66 -26 -95 -30 -49 -30 -50 -5 -75 19 -19 19
-19 -44 -13 -56 5 -66 3 -85 -16 -25 -25 -27 -59 -6 -87 14 -18 14 -18 15 8 0
16 7 31 18 36 9 4 91 7 182 7 l165 -1 15 -32 c19 -39 30 -32 30 18 0 23 -7 43
-18 53 -21 19 -86 22 -129 6 l-28 -10 23 23 c30 33 28 47 -2 19 -32 -30 -89
-32 -117 -4 l-21 21 22 30 c26 34 36 106 21 142 -8 22 -10 17 -10 -30z m29
-210 c11 -7 6 -10 -20 -10 -26 0 -31 3 -20 10 8 5 17 10 20 10 3 0 12 -5 20
-10z m99 -6 c2 -2 -15 -4 -38 -4 -25 0 -40 4 -36 10 5 8 63 3 74 -6z m46 6
c-28 -12 -37 -12 -30 0 3 6 16 10 28 9 21 0 21 -1 2 -9z"/>
<path d="M1343 2864 c-7 -3 -13 -20 -13 -37 0 -39 30 -63 59 -48 54 29 10 108
-46 85z m35 -22 c2 -7 -3 -12 -12 -12 -9 0 -16 7 -16 16 0 17 22 14 28 -4z"/>
<path d="M1651 2856 c-7 -8 -11 -27 -9 -43 3 -25 7 -28 37 -28 25 0 36 5 42
21 16 44 -42 85 -70 50z m34 -5 c7 -12 -12 -24 -25 -16 -11 7 -4 25 10 25 5 0
11 -4 15 -9z"/>
<path d="M1492 2719 c-7 -12 -11 -24 -7 -27 7 -8 25 17 25 36 0 17 -3 15 -18
-9z"/>
<path d="M1222 2640 c0 -14 2 -19 5 -12 2 6 2 18 0 25 -3 6 -5 1 -5 -13z"/>
<path d="M1380 2562 c13 -23 27 -42 31 -42 3 0 12 -14 19 -30 22 -53 70 -72
138 -54 20 6 128 152 118 161 -2 2 -27 -2 -57 -8 -53 -11 -200 -7 -248 7 l-24
7 23 -41z m135 3 c44 0 96 3 115 7 l35 8 -37 -35 c-35 -32 -43 -35 -99 -35
-64 0 -106 17 -128 52 -11 18 -10 19 11 11 13 -4 59 -8 103 -8z m95 -72 c0 -1
-7 -9 -16 -17 -26 -27 -154 -17 -154 12 0 4 38 7 85 7 47 0 85 -1 85 -2z"/>
<path d="M1350 1995 c-26 -32 13 -81 48 -59 34 22 22 74 -18 74 -10 0 -23 -7
-30 -15z m50 -23 c0 -24 -8 -32 -26 -25 -22 8 -17 43 6 43 13 0 20 -7 20 -18z"/>
<path d="M1630 1995 c-10 -12 -10 -21 -2 -40 14 -31 56 -34 72 -5 24 44 -38
83 -70 45z m58 -22 c5 -17 -26 -29 -40 -15 -6 6 -7 15 -3 22 9 14 37 9 43 -7z"/>
<path d="M1304 1930 c-12 -5 -25 -14 -29 -20 -11 -17 3 -57 21 -64 22 -8 64
20 64 43 0 28 -31 50 -56 41z m36 -40 c0 -10 -6 -20 -12 -23 -21 -7 -38 4 -38
23 0 10 6 20 13 23 20 7 37 -4 37 -23z"/>
<path d="M1696 1919 c-29 -42 30 -105 61 -63 16 22 16 39 3 65 -14 25 -45 24
-64 -2z m52 -25 c4 -25 -22 -38 -37 -20 -15 18 -3 48 18 44 9 -2 17 -13 19
-24z"/>
<path d="M1272 1708 c-18 -18 -15 -66 6 -76 30 -16 62 3 62 37 0 41 -42 65
-68 39z m46 -36 c3 -16 -2 -22 -16 -22 -24 0 -35 23 -19 39 16 16 31 8 35 -17z"/>
<path d="M1717 1702 c-22 -24 -21 -45 2 -66 42 -38 94 22 56 64 -22 25 -37 25
-58 2z m51 -29 c4 -25 -22 -37 -38 -17 -10 11 -10 17 0 29 17 20 34 14 38 -12z"/>
<path d="M965 2171 c-22 -10 -59 -38 -81 -62 -43 -45 -122 -175 -92 -151 10 8
27 34 39 58 32 66 111 141 160 151 16 3 32 10 35 14 9 14 -18 10 -61 -10z"/>
<path d="M900 2066 c0 -2 9 -6 20 -9 11 -3 18 -1 14 4 -5 9 -34 13 -34 5z"/>
<path d="M893 1985 c0 -38 2 -53 4 -32 2 20 2 52 0 70 -2 17 -4 1 -4 -38z"/>
<path d="M913 1985 c0 -38 2 -53 4 -32 2 20 2 52 0 70 -2 17 -4 1 -4 -38z"/>
<path d="M992 1978 c-7 -7 -12 -16 -12 -21 0 -5 7 -1 16 8 9 9 14 18 12 20 -2
3 -10 -1 -16 -7z"/>
<path d="M820 1959 c0 -5 5 -7 10 -4 6 3 10 8 10 11 0 2 -4 4 -10 4 -5 0 -10
-5 -10 -11z"/>
<path d="M840 1933 c0 -6 8 -17 18 -24 16 -13 16 -13 2 6 -8 11 -16 22 -17 24
-2 2 -3 0 -3 -6z"/>
<path d="M952 1905 c0 -16 2 -22 5 -12 2 9 2 23 0 30 -3 6 -5 -1 -5 -18z"/>
<path d="M965 1840 c-10 -11 -14 -20 -8 -20 5 0 18 9 28 20 10 11 14 20 8 20
-5 0 -18 -9 -28 -20z"/>
<path d="M2080 1986 c0 -2 8 -10 18 -17 15 -13 16 -12 3 4 -13 16 -21 21 -21
13z"/>
<path d="M2190 1980 c-13 -8 -12 -10 3 -10 9 0 17 5 17 10 0 12 -1 12 -20 0z"/>
<path d="M1953 1920 c0 -25 2 -35 4 -22 2 12 2 32 0 45 -2 12 -4 2 -4 -23z"/>
<path d="M2171 1944 c0 -11 3 -14 6 -6 3 7 2 16 -1 19 -3 4 -6 -2 -5 -13z"/>
<path d="M2102 1925 c0 -16 2 -22 5 -12 2 9 2 23 0 30 -3 6 -5 -1 -5 -18z"/>
<path d="M2050 1882 c0 -19 29 -86 35 -80 3 3 -4 25 -15 49 -11 24 -20 38 -20
31z"/>
<path d="M1980 1655 c-6 -8 -10 -19 -8 -26 2 -6 9 0 16 15 13 29 10 33 -8 11z"/>
<path d="M1492 1620 c0 -14 2 -19 5 -12 2 6 2 18 0 25 -3 6 -5 1 -5 -13z"/>
<path d="M1387 1557 l-17 -32 20 24 c17 20 26 41 18 41 -2 0 -11 -15 -21 -33z"/>
<path d="M1472 1520 c-11 -51 -18 -63 -50 -86 -29 -20 -32 -24 -12 -18 41 12
65 49 75 117 10 67 1 59 -13 -13z"/>
<path d="M1553 1565 c0 -22 2 -30 4 -17 2 12 2 30 0 40 -3 9 -5 -1 -4 -23z"/>
<path d="M1562 1488 c6 -18 23 -43 37 -55 41 -36 45 -27 6 12 -19 20 -35 42
-35 50 0 7 -4 16 -10 20 -5 3 -4 -9 2 -27z"/>
<path d="M686 1769 c-15 -28 -22 -48 -16 -44 12 8 53 85 48 91 -3 2 -17 -19
-32 -47z"/>
<path d="M891 1713 c-1 -7 -11 -21 -23 -33 -12 -11 -19 -22 -16 -25 9 -9 50
43 45 57 -4 9 -6 9 -6 1z"/>
<path d="M2140 1713 c0 -7 14 -27 31 -45 16 -18 26 -24 20 -13 -17 33 -51 71
-51 58z"/>
<path d="M1890 1770 c-13 -8 -12 -10 3 -10 9 0 17 5 17 10 0 12 -1 12 -20 0z"/>
<path d="M550 1380 c0 -7 67 -41 82 -41 4 0 21 -4 38 -9 18 -5 30 -5 30 1 0 5
-8 9 -17 9 -10 0 -44 11 -75 24 -32 13 -58 20 -58 16z"/>
<path d="M2490 1392 c0 -13 -67 -42 -98 -43 -15 0 -36 -5 -47 -10 -14 -6 -2
-8 39 -4 36 3 70 13 87 26 26 18 38 39 24 39 -3 0 -5 -4 -5 -8z"/>
<path d="M1146 1480 c7 -7 19 -7 35 -1 23 9 22 10 -10 10 -24 1 -32 -2 -25 -9z"/>
<path d="M1078 1473 c7 -3 16 -2 19 1 4 3 -2 6 -13 5 -11 0 -14 -3 -6 -6z"/>
<path d="M1050 1355 c-89 -17 -112 -24 -81 -24 48 -1 137 14 211 35 69 19 11
14 -130 -11z"/>
<path d="M2038 1483 c7 -3 16 -2 19 1 4 3 -2 6 -13 5 -11 0 -14 -3 -6 -6z"/>
<path d="M1830 1383 c0 -12 72 -31 170 -44 46 -6 87 -12 90 -14 3 -2 12 0 19
4 8 5 -13 11 -51 15 -57 6 -165 28 -210 42 -10 3 -18 2 -18 -3z"/>
<path d="M1338 1309 c-22 -12 -23 -42 -2 -63 22 -23 41 -20 60 9 16 24 16 27
-1 45 -20 22 -32 24 -57 9z m45 -23 c8 -20 -20 -43 -35 -28 -14 14 -3 42 16
42 7 0 16 -6 19 -14z"/>
<path d="M1658 1309 c-32 -18 -11 -79 27 -79 18 0 45 27 45 45 0 17 -27 45
-43 45 -7 0 -20 -5 -29 -11z m46 -18 c9 -14 -4 -41 -19 -41 -18 0 -28 17 -21
35 6 17 32 20 40 6z"/>
<path d="M1113 1213 c9 -2 25 -2 35 0 9 3 1 5 -18 5 -19 0 -27 -2 -17 -5z"/>
<path d="M1784 1052 c4 -7 2 -19 -4 -27 -7 -9 -8 -15 -2 -15 16 0 24 32 11 44
-9 8 -10 8 -5 -2z"/>
<path d="M740 933 c1 -11 229 -147 236 -140 4 3 -18 21 -47 40 -88 55 -189
109 -189 100z"/>
<path d="M905 790 c-3 -5 -1 -10 4 -10 6 0 11 5 11 10 0 6 -2 10 -4 10 -3 0
-8 -4 -11 -10z"/>
<path d="M845 560 c-16 -7 -17 -9 -3 -9 9 -1 20 4 23 9 7 11 7 11 -20 0z"/>
<path d="M2183 870 c-91 -54 -127 -80 -107 -80 8 0 224 131 224 136 0 10 -23
-1 -117 -56z"/>
<path d="M1415 858 c-4 -24 -5 -59 -3 -78 l3 -35 108 -3 108 -3 -3 78 -3 78
-102 3 -102 3 -6 -43z m39 10 l-19 -22 32 22 c17 12 37 22 44 22 8 0 -3 -12
-24 -27 -20 -14 -37 -30 -37 -35 0 -5 14 -23 30 -40 30 -30 35 -48 8 -32 -7 5
-23 7 -34 6 -20 -3 -22 1 -22 62 0 60 2 66 21 66 20 0 20 0 1 -22z m159 2 c6
-24 -5 -26 -23 -5 -7 8 -17 15 -23 15 -5 0 -2 -9 8 -20 26 -28 3 -25 -23 3
l-22 24 39 1 c31 1 40 -2 44 -18z m-60 -23 l27 -23 -30 -29 -30 -29 -25 24
c-31 29 -31 37 -2 61 27 23 26 23 60 -4z m57 -20 c0 -15 -67 -83 -75 -76 -3 3
9 18 25 34 17 16 30 35 30 42 0 7 5 13 10 13 6 0 10 -6 10 -13z m10 -47 c0
-14 -7 -20 -22 -20 -20 0 -21 1 -3 20 10 11 20 20 22 20 1 0 3 -9 3 -20z"/>
<path d="M1440 791 c0 -5 7 -12 16 -15 14 -5 15 -4 4 9 -14 17 -20 19 -20 6z"/>
<path d="M1510 835 c-20 -24 4 -45 26 -24 13 14 13 17 1 27 -11 10 -17 9 -27
-3z m20 -15 c0 -5 -4 -10 -10 -10 -5 0 -10 5 -10 10 0 6 5 10 10 10 6 0 10 -4
10 -10z"/>
<path d="M1843 849 c-2 -17 1 -18 12 -9 8 7 12 16 9 21 -9 16 -20 10 -21 -12z"/>
<path d="M2031 754 c0 -11 3 -14 6 -6 3 7 2 16 -1 19 -3 4 -6 -2 -5 -13z"/>
<path d="M1807 703 c-4 -3 -7 -17 -7 -30 0 -30 38 -48 59 -28 21 21 6 65 -23
65 -12 0 -26 -3 -29 -7z m45 -45 c-17 -17 -47 9 -30 29 10 12 13 12 27 -1 11
-12 12 -19 3 -28z"/>
<path d="M1427 612 c-22 -25 -22 -49 2 -62 44 -23 66 15 33 58 -17 23 -18 23
-35 4z m33 -39 c0 -7 -7 -13 -15 -13 -15 0 -21 31 -8 43 8 8 23 -12 23 -30z"/>
<path d="M1582 608 c-17 -17 -15 -55 3 -62 22 -8 45 4 45 24 0 45 -23 63 -48
38z m29 -41 c-18 -18 -38 8 -21 28 12 15 14 15 23 0 6 -11 5 -21 -2 -28z"/>
<path d="M1310 455 c-20 -24 -8 -50 26 -53 38 -4 49 16 28 47 -18 25 -37 27
-54 6z m48 -22 c-5 -26 -38 -29 -38 -4 0 15 6 21 21 21 14 0 19 -5 17 -17z"/>
<path d="M1680 449 c-9 -15 -8 -24 1 -35 18 -21 57 -18 64 6 14 44 -44 69 -65
29z m50 -20 c0 -25 -33 -22 -38 4 -2 12 3 17 17 17 15 0 21 -6 21 -21z"/>
<path d="M1304 365 c-10 -25 4 -45 30 -45 13 0 26 7 30 15 9 25 -5 45 -30 45
-14 0 -27 -7 -30 -15z m44 -13 c2 -7 -3 -12 -12 -12 -9 0 -16 7 -16 16 0 17
22 14 28 -4z"/>
<path d="M1684 365 c-10 -25 4 -45 30 -45 29 0 47 37 25 51 -22 14 -49 10 -55
-6z m44 -12 c-5 -25 -28 -28 -28 -4 0 12 6 21 16 21 9 0 14 -7 12 -17z"/>
<path d="M1402 308 c-30 -30 9 -69 44 -43 15 11 17 17 8 32 -14 23 -36 27 -52
11z m38 -24 c0 -9 -5 -14 -12 -12 -18 6 -21 28 -4 28 9 0 16 -7 16 -16z"/>
<path d="M1502 311 c-8 -4 -12 -19 -10 -32 2 -19 9 -24 33 -24 33 0 45 25 25
50 -14 17 -29 19 -48 6z m41 -17 c9 -10 -4 -34 -18 -34 -17 0 -28 17 -20 30 7
11 28 13 38 4z"/>
<path d="M1589 304 c-17 -21 0 -49 32 -49 27 0 37 28 19 50 -16 19 -34 19 -51
-1z m41 -19 c0 -8 -7 -15 -15 -15 -8 0 -15 7 -15 15 0 8 7 15 15 15 8 0 15 -7
15 -15z"/>
<path d="M2300 2676 c0 -2 7 -7 16 -10 8 -3 12 -2 9 4 -6 10 -25 14 -25 6z"/>
<path d="M859 2633 c-13 -16 -12 -17 4 -4 9 7 17 15 17 17 0 8 -8 3 -21 -13z"/>
<path d="M2632 1940 c0 -14 2 -19 5 -12 2 6 2 18 0 25 -3 6 -5 1 -5 -13z"/>
<path d="M1955 440 c10 -11 20 -20 22 -20 2 0 -1 9 -7 20 -6 11 -16 20 -22 20
-6 0 -3 -9 7 -20z"/>
<path d="M1810 249 c0 -11 5 -17 10 -14 6 3 10 13 10 21 0 8 -4 14 -10 14 -5
0 -10 -9 -10 -21z"/>
<path d="M1330 195 c0 -14 5 -25 10 -25 6 0 10 11 10 25 0 14 -4 25 -10 25 -5
0 -10 -11 -10 -25z"/>
<path d="M1365 180 c3 -5 10 -10 16 -10 5 0 9 5 9 10 0 6 -7 10 -16 10 -8 0
-12 -4 -9 -10z"/>
<path d="M1730 180 c0 -5 4 -10 9 -10 6 0 13 5 16 10 3 6 -1 10 -9 10 -9 0
-16 -4 -16 -10z"/>
<path d="M2080 180 c0 -13 70 -13 90 0 11 7 0 10 -37 10 -29 0 -53 -4 -53 -10z"/>
</g>
</svg>
